<svg xmlns="http://www.w3.org/2000/svg" width="1100" height="520">
<rect width="100%" height="100%" fill="white"/>
<text x="550.0" y="40" text-anchor="middle" font-size="28" font-family="Arial">Unified Model Comparison</text>
<line x1="80" y1="440" x2="1020" y2="440" stroke="#111"/>
<line x1="80" y1="80" x2="80" y2="440" stroke="#111"/>
<line x1="75" y1="440" x2="1020" y2="440" stroke="#eee"/>
<text x="70" y="445" text-anchor="end" font-size="12" font-family="Arial">0.00</text>
<line x1="75" y1="350.0" x2="1020" y2="350.0" stroke="#eee"/>
<text x="70" y="355.0" text-anchor="end" font-size="12" font-family="Arial">0.25</text>
<line x1="75" y1="260.0" x2="1020" y2="260.0" stroke="#eee"/>
<text x="70" y="265.0" text-anchor="end" font-size="12" font-family="Arial">0.50</text>
<line x1="75" y1="170.0" x2="1020" y2="170.0" stroke="#eee"/>
<text x="70" y="175.0" text-anchor="end" font-size="12" font-family="Arial">0.75</text>
<line x1="75" y1="80.0" x2="1020" y2="80.0" stroke="#eee"/>
<text x="70" y="85.0" text-anchor="end" font-size="12" font-family="Arial">1.00</text>
<rect x="174.0" y="136.88" width="40" height="303.12" fill="#2563eb"/>
<rect x="220.0" y="139.04000000000002" width="40" height="300.96" fill="#16a34a"/>
<rect x="266.0" y="115.63999999999999" width="40" height="324.36" fill="#dc2626"/>
<text x="222.0" y="462" text-anchor="middle" font-size="12" font-family="Arial">RF</text>
<rect x="644.0" y="145.52000000000004" width="40" height="294.47999999999996" fill="#2563eb"/>
<rect x="690.0" y="147.68" width="40" height="292.32" fill="#16a34a"/>
<rect x="736.0" y="125.36000000000001" width="40" height="314.64" fill="#dc2626"/>
<text x="692.0" y="462" text-anchor="middle" font-size="12" font-family="Arial">SVM</text>
<rect x="840" y="90" width="14" height="14" fill="#2563eb"/>
<text x="862" y="102" font-size="13" font-family="Arial">ACC</text>
<rect x="840" y="114" width="14" height="14" fill="#16a34a"/>
<text x="862" y="126" font-size="13" font-family="Arial">F1</text>
<rect x="840" y="138" width="14" height="14" fill="#dc2626"/>
<text x="862" y="150" font-size="13" font-family="Arial">AUC</text>
</svg>