<svg xmlns="http://www.w3.org/2000/svg" width="900" height="420">
<rect width="100%" height="100%" fill="white"/>
<text x="450.0" y="40" text-anchor="middle" font-size="24" font-family="Arial">Benchmark Accuracy (Demo)</text>
<line x1="70" y1="350" x2="830" y2="350" stroke="#333"/>
<line x1="70" y1="70" x2="70" y2="350" stroke="#333"/>
<rect x="110" y="114.24000000000001" width="120" height="235.76" fill="#4f46e5"/>
<text x="170.0" y="104.24000000000001" text-anchor="middle" font-size="16" font-family="Arial">0.842</text>
<text x="170.0" y="374" text-anchor="middle" font-size="16" font-family="Arial">RF</text>
<rect x="330" y="120.96000000000001" width="120" height="229.04" fill="#4f46e5"/>
<text x="390.0" y="110.96000000000001" text-anchor="middle" font-size="16" font-family="Arial">0.818</text>
<text x="390.0" y="374" text-anchor="middle" font-size="16" font-family="Arial">SVM</text>
<line x1="64" y1="350" x2="70" y2="350" stroke="#333"/>
<text x="58" y="355" text-anchor="end" font-size="12" font-family="Arial">0.00</text>
<line x1="64" y1="280.0" x2="70" y2="280.0" stroke="#333"/>
<text x="58" y="285.0" text-anchor="end" font-size="12" font-family="Arial">0.25</text>
<line x1="64" y1="210.0" x2="70" y2="210.0" stroke="#333"/>
<text x="58" y="215.0" text-anchor="end" font-size="12" font-family="Arial">0.50</text>
<line x1="64" y1="140.0" x2="70" y2="140.0" stroke="#333"/>
<text x="58" y="145.0" text-anchor="end" font-size="12" font-family="Arial">0.75</text>
<line x1="64" y1="70.0" x2="70" y2="70.0" stroke="#333"/>
<text x="58" y="75.0" text-anchor="end" font-size="12" font-family="Arial">1.00</text>
</svg>