<svg xmlns="http://www.w3.org/2000/svg" width="440" height="460">
<rect width="100%" height="100%" fill="white"/>
<text x="220.0" y="40" text-anchor="middle" font-size="24" font-family="Arial">Cross-Dataset Accuracy Matrix</text>
<text x="220.0" y="66" text-anchor="middle" font-size="14" font-family="Arial" fill="#555">rows=train, cols=test</text>
<text x="180.0" y="130" text-anchor="middle" font-size="12" font-family="Arial">dataset_a</text>
<text x="130" y="184.0" text-anchor="end" font-size="12" font-family="Arial">dataset_a</text>
<text x="260.0" y="130" text-anchor="middle" font-size="12" font-family="Arial">dataset_b</text>
<text x="130" y="264.0" text-anchor="end" font-size="12" font-family="Arial">dataset_b</text>
<text x="340.0" y="130" text-anchor="middle" font-size="12" font-family="Arial">dataset_c</text>
<text x="130" y="344.0" text-anchor="end" font-size="12" font-family="Arial">dataset_c</text>
<rect x="140" y="140" width="80" height="80" fill="#f3f4f6" stroke="#d1d5db"/>
<text x="180.0" y="184.0" text-anchor="middle" font-size="14" font-family="Arial">—</text>
<rect x="220" y="140" width="80" height="80" fill="rgb(151,161,255)" stroke="#d1d5db"/>
<text x="260.0" y="184.0" text-anchor="middle" font-size="14" font-family="Arial">0.74</text>
<rect x="300" y="140" width="80" height="80" fill="rgb(157,167,255)" stroke="#d1d5db"/>
<text x="340.0" y="184.0" text-anchor="middle" font-size="14" font-family="Arial">0.70</text>
<rect x="140" y="220" width="80" height="80" fill="rgb(154,164,255)" stroke="#d1d5db"/>
<text x="180.0" y="264.0" text-anchor="middle" font-size="14" font-family="Arial">0.72</text>
<rect x="220" y="220" width="80" height="80" fill="#f3f4f6" stroke="#d1d5db"/>
<text x="260.0" y="264.0" text-anchor="middle" font-size="14" font-family="Arial">—</text>
<rect x="300" y="220" width="80" height="80" fill="rgb(159,169,255)" stroke="#d1d5db"/>
<text x="340.0" y="264.0" text-anchor="middle" font-size="14" font-family="Arial">0.68</text>
<rect x="140" y="300" width="80" height="80" fill="rgb(158,168,255)" stroke="#d1d5db"/>
<text x="180.0" y="344.0" text-anchor="middle" font-size="14" font-family="Arial">0.69</text>
<rect x="220" y="300" width="80" height="80" fill="rgb(155,165,255)" stroke="#d1d5db"/>
<text x="260.0" y="344.0" text-anchor="middle" font-size="14" font-family="Arial">0.71</text>
<rect x="300" y="300" width="80" height="80" fill="#f3f4f6" stroke="#d1d5db"/>
<text x="340.0" y="344.0" text-anchor="middle" font-size="14" font-family="Arial">—</text>
</svg>